<?xml version="1.0" encoding="UTF-8"?>
<svg version="1.1" xmlns="http://www.w3.org/2000/svg" width="1024" height="1024">
<path d="M0 0 C1.31966766 0.00149048 2.63933533 0.00298096 3.99899292 0.0045166 C23.34725252 0.0358857 42.26735856 0.60227891 61.4375 3.3125 C63.65089597 3.59489429 65.8644394 3.87613513 68.078125 4.15625 C113.6633349 10.1853692 159.10461694 22.19352847 201.02832031 41.22412109 C203.50732334 42.34404362 205.99786797 43.43419106 208.4921875 44.51953125 C249.26118718 62.3677289 287.37182274 86.72794798 321.4375 115.3125 C322.05109375 115.82699707 322.6646875 116.34149414 323.296875 116.87158203 C325.09860279 118.38794 326.89469664 119.91060403 328.6875 121.4375 C329.44595215 122.08247437 329.44595215 122.08247437 330.21972656 122.74047852 C340.17943956 131.30815961 349.67061924 140.3589523 358.95678711 149.64648438 C360.6292165 151.31671095 362.30953669 152.97872379 363.99023438 154.640625 C369.85368786 160.47433169 375.35802376 166.38686241 380.48583984 172.88720703 C382.52211633 175.41765119 384.66907957 177.80432038 386.875 180.1875 C409.66383207 205.29851012 428.14144667 235.4434301 444.25976562 265.14941406 C445.37491223 267.19754817 446.50628026 269.23589367 447.640625 271.2734375 C486.14380851 341.24773412 503.97237211 423.47628812 503.75 502.875 C503.74850952 504.19466766 503.74701904 505.51433533 503.7454834 506.87399292 C503.71412135 526.21790395 503.16584633 545.1477417 500.4375 564.3125 C500.13241706 566.63145843 499.82773559 568.9504697 499.5234375 571.26953125 C497.46474274 586.40699272 494.70906911 601.39238435 491.4375 616.3125 C491.23995117 617.22870117 491.04240234 618.14490234 490.83886719 619.08886719 C484.4428296 648.20078294 474.68165382 677.15361707 462.4375 704.3125 C461.55679379 706.31488526 460.67659903 708.31749554 459.796875 710.3203125 C453.69836194 724.05237577 446.83443497 737.2404584 439.4375 750.3125 C438.53383842 751.93228288 437.63019215 753.5520743 436.7265625 755.171875 C422.92001264 779.68647509 406.51240148 802.77171252 388.4375 824.3125 C387.92300293 824.92609375 387.40850586 825.5396875 386.87841797 826.171875 C385.36206 827.97360279 383.83939597 829.76969664 382.3125 831.5625 C381.88251709 832.06813477 381.45253418 832.57376953 381.00952148 833.09472656 C372.44184039 843.05443956 363.3910477 852.54561924 354.10351562 861.83178711 C352.43328905 863.5042165 350.77127621 865.18453669 349.109375 866.86523438 C343.27566831 872.72868786 337.36313759 878.23302376 330.86279297 883.36083984 C328.33234881 885.39711633 325.94567962 887.54407957 323.5625 889.75 C298.45148988 912.53883207 268.3065699 931.01644667 238.60058594 947.13476562 C236.55245183 948.24991223 234.51410633 949.38128026 232.4765625 950.515625 C162.50226588 989.01880851 80.27371188 1006.84737211 0.875 1006.625 C-1.1045015 1006.62276428 -1.1045015 1006.62276428 -3.12399292 1006.6204834 C-22.46790395 1006.58912135 -41.3977417 1006.04084633 -60.5625 1003.3125 C-62.88145843 1003.00741706 -65.2004697 1002.70273559 -67.51953125 1002.3984375 C-82.65699272 1000.33974274 -97.64238435 997.58406911 -112.5625 994.3125 C-113.47870117 994.11495117 -114.39490234 993.91740234 -115.33886719 993.71386719 C-144.45078294 987.3178296 -173.40361707 977.55665382 -200.5625 965.3125 C-202.56488526 964.43179379 -204.56749554 963.55159903 -206.5703125 962.671875 C-220.30237577 956.57336194 -233.4904584 949.70943497 -246.5625 942.3125 C-248.18228288 941.40883842 -249.8020743 940.50519215 -251.421875 939.6015625 C-275.93647509 925.79501264 -299.02171252 909.38740148 -320.5625 891.3125 C-321.17609375 890.79800293 -321.7896875 890.28350586 -322.421875 889.75341797 C-324.22360279 888.23706 -326.01969664 886.71439597 -327.8125 885.1875 C-328.57095215 884.54252563 -328.57095215 884.54252563 -329.34472656 883.88452148 C-339.30443956 875.31684039 -348.79561924 866.2660477 -358.08178711 856.97851562 C-359.7542165 855.30828905 -361.43453669 853.64627621 -363.11523438 851.984375 C-368.97868786 846.15066831 -374.48302376 840.23813759 -379.61083984 833.73779297 C-381.64711633 831.20734881 -383.79407957 828.82067962 -386 826.4375 C-408.78883207 801.32648988 -427.26644667 771.1815699 -443.38476562 741.47558594 C-444.49991223 739.42745183 -445.63128026 737.38910633 -446.765625 735.3515625 C-485.26880851 665.37726588 -503.09737211 583.14871188 -502.875 503.75 C-502.87350952 502.43033234 -502.87201904 501.11066467 -502.8704834 499.75100708 C-502.8391143 480.40274748 -502.27272109 461.48264144 -499.5625 442.3125 C-499.28010571 440.09910403 -498.99886487 437.8855606 -498.71875 435.671875 C-492.6896308 390.0866651 -480.68147153 344.64538306 -461.65087891 302.72167969 C-460.53095638 300.24267666 -459.44080894 297.75213203 -458.35546875 295.2578125 C-446.67950007 268.58746893 -432.13306045 243.23672899 -415.5625 219.3125 C-415.07040039 218.59513672 -414.57830078 217.87777344 -414.07128906 217.13867188 C-407.40554374 207.43279157 -400.39792993 198.09317053 -392.93359375 188.98779297 C-391.65603288 187.42678466 -390.39004434 185.8563251 -389.125 184.28515625 C-384.86483339 179.01172085 -380.47267512 173.89815133 -375.8984375 168.89453125 C-374.65374103 167.51870455 -373.41419069 166.13745741 -372.21484375 164.72192383 C-366.69598353 158.24225206 -360.69069769 152.25460352 -354.67578125 146.24047852 C-352.82521033 144.38772532 -350.98279924 142.52711294 -349.140625 140.66601562 C-342.99092101 134.48779925 -336.80435398 128.61259662 -329.94384766 123.22021484 C-327.4246915 121.20210061 -325.05567549 119.06740851 -322.6875 116.875 C-297.57648988 94.08616793 -267.4315699 75.60855333 -237.72558594 59.49023438 C-235.67745183 58.37508777 -233.63910633 57.24371974 -231.6015625 56.109375 C-161.58131377 17.57526511 -79.4956758 -0.22264368 0 0 Z " fill="#FEFEFE" transform="translate(511.5625,8.6875)"/>
<path d="M0 0 C0.63550781 0.20898926 1.27101563 0.41797852 1.92578125 0.63330078 C18.02385942 6.10451625 31.13218039 14.92611265 43 27 C44.14082031 28.14275391 44.14082031 28.14275391 45.3046875 29.30859375 C62.43583397 47.47294166 70.72582513 72.42260108 70.47290039 97.0793457 C69.8016346 116.77526623 64.21851802 139.54783051 50.7265625 154.5234375 C48.73641982 156.81418426 48.73641982 156.81418426 49.20019531 159.29858398 C50.12261288 162.41413661 51.43857968 164.8878839 53.0703125 167.69921875 C53.71170166 168.81248535 54.35309082 169.92575195 55.01391602 171.07275391 C55.71749364 172.27773761 56.4211915 173.48265113 57.125 174.6875 C57.85213915 175.94411816 58.57861033 177.20112306 59.30444336 178.45849609 C60.7996765 181.04627864 62.2987785 183.63175689 63.80126953 186.21533203 C66.45609767 190.78153198 69.09067624 195.3593331 71.72607422 199.93676758 C74.19374351 204.22090654 76.66755173 208.50148784 79.14111328 212.78222656 C82.26324607 218.18670649 85.38136526 223.59350107 88.5 229 C89.11810547 230.07121094 89.73621094 231.14242187 90.37304688 232.24609375 C93.51222374 237.68646075 96.64999629 243.12762955 99.78515625 248.5703125 C105.83055159 259.06232094 111.89110219 269.54481676 118 280 C124.74701194 291.54729516 131.43339318 303.12902027 138.10888672 314.71777344 C141.23680148 320.14659942 144.36858448 325.57319281 147.5 331 C148.75001879 333.16665583 150.00001878 335.3333225 151.25 337.5 C152.178125 339.10875 152.178125 339.10875 153.125 340.75 C158.75 350.50000001 158.75 350.50000001 160.62792969 353.75512695 C161.86810761 355.90473634 163.10834127 358.05431358 164.34863281 360.20385742 C167.2735023 365.27309212 170.19780833 370.34264936 173.12011719 375.4133606 C174.49806938 377.80426597 175.87634172 380.19498672 177.25463867 382.58569336 C178.22540982 384.26983963 179.19571874 385.95425231 180.16601562 387.63867188 C180.75576172 388.66154297 181.34550781 389.68441406 181.953125 390.73828125 C182.47036133 391.63587158 182.98759766 392.53346191 183.52050781 393.45825195 C184.00874023 394.29702881 184.49697266 395.13580566 185 396 C185.43328613 396.92635254 185.86657227 397.85270508 186.31298828 398.80712891 C187.82895249 401.28345194 187.82895249 401.28345194 190.73291016 401.50415039 C191.82394043 401.45250732 192.9149707 401.40086426 194.0390625 401.34765625 C195.85736572 401.29182373 195.85736572 401.29182373 197.71240234 401.23486328 C199.64913818 401.14954346 199.64913818 401.14954346 201.625 401.0625 C213.15944324 400.81245757 223.07677719 401.3013138 234 405 C234.62970703 405.20898926 235.25941406 405.41797852 235.90820312 405.63330078 C252.01600678 411.10225243 265.12566386 419.91948297 277 432 C277.76054688 432.76183594 278.52109375 433.52367187 279.3046875 434.30859375 C297.31439634 453.40449125 304.6750254 479.04486466 304.27734375 504.78125 C303.24154522 532.23764098 290.5564944 556.29304678 271.1015625 575.265625 C256.59025649 588.45431036 238.98928675 595.31314474 220 599 C218.5459375 599.29003906 218.5459375 599.29003906 217.0625 599.5859375 C204.25414138 601.31767986 191.48423992 600.0452581 179 597 C177.89269531 596.73316406 176.78539062 596.46632813 175.64453125 596.19140625 C151.54672628 589.58725751 130.70078674 572.31407445 118.10205078 550.96191406 C111.87233906 539.87153671 108.41493715 528.43822467 106 516 C105.80921875 515.05511719 105.6184375 514.11023438 105.421875 513.13671875 C102.1521216 488.82549669 107.58705877 463.38563099 122.5625 443.75 C123.24441406 442.94046875 123.92632813 442.1309375 124.62890625 441.296875 C126.20175226 439.11541131 126.20175226 439.11541131 125.9765625 436.69140625 C124.62217853 432.95872403 122.78275012 429.62826308 120.8125 426.1875 C120.37252686 425.40761719 119.93255371 424.62773438 119.47924805 423.82421875 C114.63734839 415.28018076 109.66627229 406.80987947 104.703125 398.3359375 C100.96365385 391.94717965 97.25880504 385.53880768 93.5625 379.125 C92.94101074 378.04686035 92.31952148 376.9687207 91.67919922 375.85791016 C89.1535448 371.47536799 86.62904571 367.09216077 84.10449219 362.70898438 C77.43043636 351.12318142 70.74524002 339.54453673 64 328 C53.47242327 309.9785425 43.06724827 291.88738749 32.72177124 273.76092529 C27.79116223 265.12251128 22.83222887 256.50128728 17.83984375 247.8984375 C14.38188255 241.93883999 10.94181112 235.96893381 7.5 230 C5.60251744 226.71069329 3.70485748 223.421489 1.80712891 220.13232422 C0.63474076 218.10020589 -0.53747042 216.06798545 -1.70947266 214.03564453 C-3.24280525 211.37734509 -4.77744482 208.71980499 -6.3125 206.0625 C-6.76238281 205.28197266 -7.21226562 204.50144531 -7.67578125 203.69726562 C-8.08828125 202.98376953 -8.50078125 202.27027344 -8.92578125 201.53515625 C-9.28067627 200.920354 -9.63557129 200.30555176 -10.0012207 199.67211914 C-10.95018921 198.08339137 -11.97349028 196.53976458 -13 195 C-15.55395487 194.73288596 -17.86274374 194.65150971 -20.4140625 194.70703125 C-21.14370209 194.71127609 -21.87334167 194.71552094 -22.62509155 194.71989441 C-24.95876759 194.73670647 -27.2915844 194.77436132 -29.625 194.8125 C-31.20571671 194.82754366 -32.78644693 194.84123262 -34.3671875 194.85351562 C-38.24512344 194.88661799 -42.12241598 194.93841596 -46 195 C-46.37584229 195.65145996 -46.75168457 196.30291992 -47.13891602 196.97412109 C-53.02880859 207.18326823 -58.91870117 217.39241536 -64.80859375 227.6015625 C-65.41896484 228.65956055 -66.02933594 229.71755859 -66.65820312 230.80761719 C-67.89510728 232.95154067 -69.13208754 235.09542026 -70.36914062 237.23925781 C-73.50958117 242.68192559 -76.64868634 248.12535545 -79.78515625 253.5703125 C-86.40222892 265.0544882 -93.04633977 276.52196894 -99.73291016 287.96582031 C-105.89488659 298.51883187 -111.99617839 309.1066104 -118.09570312 319.69580078 C-120.01506662 323.02614252 -121.93682353 326.35509148 -123.859375 329.68359375 C-129.61613116 339.65143242 -135.36376551 349.62385917 -141.0625 359.625 C-145.91199855 368.13428176 -150.83842546 376.5970849 -155.78491211 385.05029297 C-160.10390531 392.43947129 -164.36238563 399.8610436 -168.57299805 407.3125 C-171.11581908 411.7895817 -173.72648695 416.20776411 -176.44921875 420.578125 C-177.0117334 421.48723633 -177.57424805 422.39634766 -178.15380859 423.33300781 C-179.23381076 425.06953175 -180.32602386 426.79853966 -181.43212891 428.51855469 C-181.91472168 429.29618164 -182.39731445 430.07380859 -182.89453125 430.875 C-183.32612549 431.55304688 -183.75771973 432.23109375 -184.20239258 432.9296875 C-185.25894073 435.67212042 -184.85273981 437.22112404 -184 440 C-182.67721349 442.17152721 -181.32608048 444.23218203 -179.875 446.3125 C-165.2641072 468.21713645 -160.56627261 494.44502945 -165.625 520.25 C-171.19556245 546.51629174 -186.50255543 569.77619965 -209.10424805 584.49853516 C-221.29813851 592.09352575 -233.96172676 596.27440624 -248 599 C-248.969375 599.19335938 -249.93875 599.38671875 -250.9375 599.5859375 C-263.74585862 601.31767986 -276.51576008 600.0452581 -289 597 C-290.10730469 596.73316406 -291.21460938 596.46632813 -292.35546875 596.19140625 C-316.45327372 589.58725751 -337.29921326 572.31407445 -349.89794922 550.96191406 C-356.12766094 539.87153671 -359.58506285 528.43822467 -362 516 C-362.19078125 515.05511719 -362.3815625 514.11023438 -362.578125 513.13671875 C-366.04746515 487.34153229 -359.34239967 461.88067948 -343.98461914 440.96411133 C-327.95949231 420.12511241 -305.23977945 405.67474907 -279.16064453 401.36181641 C-268.53467265 400.14540282 -257.66297895 400.6367053 -247 401 C-246.62415771 400.34854004 -246.24831543 399.69708008 -245.86108398 399.02587891 C-239.97119141 388.81673177 -234.08129883 378.60758464 -228.19140625 368.3984375 C-227.58103516 367.34043945 -226.97066406 366.28244141 -226.34179688 365.19238281 C-225.10489272 363.04845933 -223.86791246 360.90457974 -222.63085938 358.76074219 C-219.49041883 353.31807441 -216.35131366 347.87464455 -213.21484375 342.4296875 C-206.59777108 330.9455118 -199.95366023 319.47803106 -193.26708984 308.03417969 C-187.10080946 297.47379718 -180.9950405 286.87873234 -174.89111328 276.28222656 C-171.76319852 270.85340058 -168.63141552 265.42680719 -165.5 260 C-164.24998121 257.83334417 -162.99998122 255.6666775 -161.75 253.5 C-154.25 240.5 -146.75 227.5 -139.25 214.5 C-138.63044434 213.4260498 -138.01088867 212.35209961 -137.37255859 211.24560547 C-136.13088473 209.0934787 -134.88902478 206.94145927 -133.64697266 204.78955078 C-130.73833177 199.74969023 -127.83148102 194.70882508 -124.93145752 189.66400146 C-123.90724335 187.88250422 -122.88242349 186.10135678 -121.85742188 184.3203125 C-120.57366625 182.08923375 -119.29104061 179.85750427 -118.00976562 177.625 C-117.42646484 176.61179687 -116.84316406 175.59859375 -116.2421875 174.5546875 C-115.69401367 173.59916992 -115.14583984 172.64365234 -114.58105469 171.65917969 C-113.13666388 169.22985532 -111.59421066 166.9078751 -110.0078125 164.5703125 C-108.51054637 162.17265294 -108.00807058 161.28247022 -107.92578125 158.40234375 C-109.35096902 155.21510565 -111.20402998 152.41803715 -113.1875 149.5625 C-121.16357162 137.54374025 -125.19890297 125.01984973 -128 111 C-128.28810547 109.57880859 -128.28810547 109.57880859 -128.58203125 108.12890625 C-132.02870333 82.32718348 -125.34761238 56.88777895 -109.98461914 35.96411133 C-84.46885408 2.78353147 -40.55474189 -13.52861405 0 0 Z " fill="#113399" transform="translate(542,187)"/>
<path d="M0 0 C1.31966766 0.00149048 2.63933533 0.00298096 3.99899292 0.0045166 C23.34725252 0.0358857 42.26735856 0.60227891 61.4375 3.3125 C63.65089597 3.59489429 65.8644394 3.87613513 68.078125 4.15625 C113.6633349 10.1853692 159.10461694 22.19352847 201.02832031 41.22412109 C203.50732334 42.34404362 205.99786797 43.43419106 208.4921875 44.51953125 C249.26118718 62.3677289 287.37182274 86.72794798 321.4375 115.3125 C322.05109375 115.82699707 322.6646875 116.34149414 323.296875 116.87158203 C325.09860279 118.38794 326.89469664 119.91060403 328.6875 121.4375 C329.44595215 122.08247437 329.44595215 122.08247437 330.21972656 122.74047852 C340.17943956 131.30815961 349.67061924 140.3589523 358.95678711 149.64648438 C360.6292165 151.31671095 362.30953669 152.97872379 363.99023438 154.640625 C369.85368786 160.47433169 375.35802376 166.38686241 380.48583984 172.88720703 C382.52211633 175.41765119 384.66907957 177.80432038 386.875 180.1875 C409.66383207 205.29851012 428.14144667 235.4434301 444.25976562 265.14941406 C445.37491223 267.19754817 446.50628026 269.23589367 447.640625 271.2734375 C486.14380851 341.24773412 503.97237211 423.47628812 503.75 502.875 C503.74850952 504.19466766 503.74701904 505.51433533 503.7454834 506.87399292 C503.71412135 526.21790395 503.16584633 545.1477417 500.4375 564.3125 C500.13241706 566.63145843 499.82773559 568.9504697 499.5234375 571.26953125 C497.46474274 586.40699272 494.70906911 601.39238435 491.4375 616.3125 C491.23995117 617.22870117 491.04240234 618.14490234 490.83886719 619.08886719 C484.4428296 648.20078294 474.68165382 677.15361707 462.4375 704.3125 C461.55679379 706.31488526 460.67659903 708.31749554 459.796875 710.3203125 C453.69836194 724.05237577 446.83443497 737.2404584 439.4375 750.3125 C438.53383842 751.93228288 437.63019215 753.5520743 436.7265625 755.171875 C422.92001264 779.68647509 406.51240148 802.77171252 388.4375 824.3125 C387.92300293 824.92609375 387.40850586 825.5396875 386.87841797 826.171875 C385.36206 827.97360279 383.83939597 829.76969664 382.3125 831.5625 C381.88251709 832.06813477 381.45253418 832.57376953 381.00952148 833.09472656 C372.44184039 843.05443956 363.3910477 852.54561924 354.10351562 861.83178711 C352.43328905 863.5042165 350.77127621 865.18453669 349.109375 866.86523438 C343.27566831 872.72868786 337.36313759 878.23302376 330.86279297 883.36083984 C328.33234881 885.39711633 325.94567962 887.54407957 323.5625 889.75 C298.45148988 912.53883207 268.3065699 931.01644667 238.60058594 947.13476562 C236.55245183 948.24991223 234.51410633 949.38128026 232.4765625 950.515625 C162.50226588 989.01880851 80.27371188 1006.84737211 0.875 1006.625 C-1.1045015 1006.62276428 -1.1045015 1006.62276428 -3.12399292 1006.6204834 C-22.46790395 1006.58912135 -41.3977417 1006.04084633 -60.5625 1003.3125 C-62.88145843 1003.00741706 -65.2004697 1002.70273559 -67.51953125 1002.3984375 C-82.65699272 1000.33974274 -97.64238435 997.58406911 -112.5625 994.3125 C-113.47870117 994.11495117 -114.39490234 993.91740234 -115.33886719 993.71386719 C-144.45078294 987.3178296 -173.40361707 977.55665382 -200.5625 965.3125 C-202.56488526 964.43179379 -204.56749554 963.55159903 -206.5703125 962.671875 C-220.30237577 956.57336194 -233.4904584 949.70943497 -246.5625 942.3125 C-248.18228288 941.40883842 -249.8020743 940.50519215 -251.421875 939.6015625 C-275.93647509 925.79501264 -299.02171252 909.38740148 -320.5625 891.3125 C-321.17609375 890.79800293 -321.7896875 890.28350586 -322.421875 889.75341797 C-324.22360279 888.23706 -326.01969664 886.71439597 -327.8125 885.1875 C-328.57095215 884.54252563 -328.57095215 884.54252563 -329.34472656 883.88452148 C-339.30443956 875.31684039 -348.79561924 866.2660477 -358.08178711 856.97851562 C-359.7542165 855.30828905 -361.43453669 853.64627621 -363.11523438 851.984375 C-368.97868786 846.15066831 -374.48302376 840.23813759 -379.61083984 833.73779297 C-381.64711633 831.20734881 -383.79407957 828.82067962 -386 826.4375 C-408.78883207 801.32648988 -427.26644667 771.1815699 -443.38476562 741.47558594 C-444.49991223 739.42745183 -445.63128026 737.38910633 -446.765625 735.3515625 C-485.26880851 665.37726588 -503.09737211 583.14871188 -502.875 503.75 C-502.87350952 502.43033234 -502.87201904 501.11066467 -502.8704834 499.75100708 C-502.8391143 480.40274748 -502.27272109 461.48264144 -499.5625 442.3125 C-499.28010571 440.09910403 -498.99886487 437.8855606 -498.71875 435.671875 C-492.6896308 390.0866651 -480.68147153 344.64538306 -461.65087891 302.72167969 C-460.53095638 300.24267666 -459.44080894 297.75213203 -458.35546875 295.2578125 C-446.67950007 268.58746893 -432.13306045 243.23672899 -415.5625 219.3125 C-415.07040039 218.59513672 -414.57830078 217.87777344 -414.07128906 217.13867188 C-407.40554374 207.43279157 -400.39792993 198.09317053 -392.93359375 188.98779297 C-391.65603288 187.42678466 -390.39004434 185.8563251 -389.125 184.28515625 C-384.86483339 179.01172085 -380.47267512 173.89815133 -375.8984375 168.89453125 C-374.65374103 167.51870455 -373.41419069 166.13745741 -372.21484375 164.72192383 C-366.69598353 158.24225206 -360.69069769 152.25460352 -354.67578125 146.24047852 C-352.82521033 144.38772532 -350.98279924 142.52711294 -349.140625 140.66601562 C-342.99092101 134.48779925 -336.80435398 128.61259662 -329.94384766 123.22021484 C-327.4246915 121.20210061 -325.05567549 119.06740851 -322.6875 116.875 C-297.57648988 94.08616793 -267.4315699 75.60855333 -237.72558594 59.49023438 C-235.67745183 58.37508777 -233.63910633 57.24371974 -231.6015625 56.109375 C-161.58131377 17.57526511 -79.4956758 -0.22264368 0 0 Z M-32.5 41.1875 C-33.30971252 41.22661499 -34.11942505 41.26572998 -34.95367432 41.30603027 C-44.92583101 41.80149372 -54.69657257 42.70992705 -64.5625 44.3125 C-65.79009033 44.50424805 -67.01768066 44.69599609 -68.2824707 44.89355469 C-72.1077397 45.49645167 -75.92900363 46.1206365 -79.75 46.75 C-81.66329102 47.05647461 -81.66329102 47.05647461 -83.61523438 47.36914062 C-90.22910503 48.45956306 -96.64670449 49.76083193 -103.08764648 51.61791992 C-105.37133303 52.25884803 -107.64373304 52.79258961 -109.96484375 53.27734375 C-134.68980693 58.51031433 -159.16499894 67.26401531 -182.30908203 77.33496094 C-184.45732262 78.26687376 -186.61479896 79.17218972 -188.77734375 80.0703125 C-199.3738893 84.5169737 -209.48803031 89.79637311 -219.5625 95.3125 C-220.38878906 95.76222168 -221.21507812 96.21194336 -222.06640625 96.67529297 C-242.18446051 107.68658503 -261.34550919 120.38217012 -279.5625 134.3125 C-280.14112793 134.75368164 -280.71975586 135.19486328 -281.31591797 135.64941406 C-290.33591481 142.55655175 -299.03099956 149.81230816 -307.5625 157.3125 C-308.91794922 158.49779297 -308.91794922 158.49779297 -310.30078125 159.70703125 C-316.97640813 165.68707906 -323.35266301 171.97526113 -329.71243286 178.28720093 C-330.72008155 179.28680971 -331.72920601 180.28493355 -332.73995972 181.28140259 C-338.73408412 187.19975171 -344.36589687 193.27888211 -349.60693359 199.88330078 C-351.49638189 202.23036827 -353.465725 204.46566581 -355.5 206.6875 C-360.5286751 212.30021414 -365.06167353 218.27598716 -369.5625 224.3125 C-370.05379395 224.96863281 -370.54508789 225.62476563 -371.05126953 226.30078125 C-385.0345985 245.05707473 -397.23530874 264.8578547 -408.5625 285.3125 C-408.96275391 286.02647949 -409.36300781 286.74045898 -409.77539062 287.47607422 C-435.66887133 333.80423113 -450.50741031 386.0950945 -458.5625 438.3125 C-458.72443848 439.29911621 -458.88637695 440.28573242 -459.05322266 441.30224609 C-460.60197086 451.24448924 -461.21647507 461.14523402 -461.6875 471.1875 C-461.72919312 472.04987274 -461.77088623 472.91224548 -461.81384277 473.80075073 C-463.50362662 509.07315532 -462.97985511 544.50632293 -456.5625 579.3125 C-456.15136159 581.64305611 -455.74123592 583.97379108 -455.33203125 586.3046875 C-451.92554138 605.44873905 -447.71730786 623.87002428 -441.5625 642.3125 C-441.19850098 643.41239258 -440.83450195 644.51228516 -440.45947266 645.64550781 C-435.1845266 661.52013003 -429.57844614 677.1154348 -422.5625 692.3125 C-421.88598389 693.78082275 -421.88598389 693.78082275 -421.19580078 695.27880859 C-405.07027431 730.03633518 -385.6437095 762.47655575 -361.5625 792.3125 C-360.78003906 793.28960938 -359.99757813 794.26671875 -359.19140625 795.2734375 C-354.91118363 800.56993481 -350.49319404 805.70440364 -345.8984375 810.73046875 C-344.63709517 812.12469497 -343.38157332 813.52481127 -342.16210938 814.95581055 C-337.03979223 820.94714778 -331.52805524 826.53307669 -325.95751953 832.1027832 C-324.32422552 833.73825882 -322.6991153 835.38157708 -321.07421875 837.02539062 C-315.28123466 842.84871051 -309.39675739 848.30073426 -302.94775391 853.40087891 C-300.61226658 855.27261542 -298.39426775 857.22906814 -296.1875 859.25 C-233.86792697 915.08482028 -150.06110108 949.65256035 -67.94091797 961.81201172 C-65.70855237 962.1427206 -63.47827024 962.48785015 -61.25048828 962.84814453 C-51.4176036 964.38288814 -41.61599207 964.97181155 -31.6875 965.4375 C-30.82512726 965.47919312 -29.96275452 965.52088623 -29.07424927 965.56384277 C6.50668758 967.26840738 42.30819309 966.68646626 77.4375 960.3125 C78.55608398 960.11221191 79.67466797 959.91192383 80.82714844 959.70556641 C100.80861503 956.09033081 120.17320759 951.73173055 139.4375 945.3125 C141.0474585 944.78245361 141.0474585 944.78245361 142.68994141 944.24169922 C203.47905975 924.15463798 260.75303968 893.08138694 308.03125 849.5078125 C309.35789672 848.29746273 310.69248487 847.09502758 312.05883789 845.9296875 C318.05770452 840.80136059 323.65128678 835.28484616 329.2277832 829.70751953 C330.86325882 828.07422552 332.50657708 826.4491153 334.15039062 824.82421875 C339.98116419 819.02376402 345.43800474 813.13110819 350.54418945 806.67333984 C352.34692859 804.42543688 354.22945742 802.30031885 356.1875 800.1875 C412.87976719 736.97112269 446.55028469 652.33814861 458.98242188 569.27075195 C459.2875749 567.28709356 459.61204445 565.30631712 459.95507812 563.32885742 C461.5461013 553.91062125 462.10495377 544.52612664 462.5625 535 C462.60419312 534.15847382 462.64588623 533.31694763 462.68884277 532.44992065 C463.69519802 511.94652435 463.55364315 491.68812286 462.5625 471.1875 C462.52338501 470.3535672 462.48427002 469.5196344 462.44396973 468.66043091 C461.9529037 458.43724882 461.08923158 448.42568214 459.4375 438.3125 C459.25638672 437.13913086 459.07527344 435.96576172 458.88867188 434.75683594 C454.68634916 407.68893376 448.39196519 381.73161048 439.75 355.75 C439.4880484 354.96113403 439.2260968 354.17226807 438.95620728 353.35949707 C434.99089391 341.46641458 430.6513433 329.86852304 425.41503906 318.46777344 C424.46800269 316.37975218 423.56599084 314.27848583 422.6796875 312.1640625 C411.75913343 286.17947456 396.97750523 261.11037971 380.4375 238.3125 C379.99100098 237.69020508 379.54450195 237.06791016 379.08447266 236.42675781 C368.85445962 222.1750913 358.02042648 208.48812864 346.4375 195.3125 C345.64730469 194.40886719 344.85710938 193.50523437 344.04296875 192.57421875 C338.06292094 185.89859187 331.77473887 179.52233699 325.46279907 173.16256714 C324.46319029 172.15491845 323.46506645 171.14579399 322.46859741 170.13504028 C316.55024829 164.14091588 310.47111789 158.50910313 303.86669922 153.26806641 C301.51963173 151.37861811 299.28433419 149.409275 297.0625 147.375 C291.44978586 142.3463249 285.47401284 137.81332647 279.4375 133.3125 C278.78136719 132.82120605 278.12523437 132.32991211 277.44921875 131.82373047 C214.90058465 85.19201573 142.874114 56.36038949 66.01025391 44.71044922 C63.95516766 44.39257196 61.90442164 44.04667725 59.85546875 43.69140625 C29.51835354 38.45246668 -1.88329366 39.66259487 -32.5 41.1875 Z " fill="#14359A" transform="translate(511.5625,8.6875)"/>
<path d="M0 0 C0.63550781 0.20898926 1.27101563 0.41797852 1.92578125 0.63330078 C18.02385942 6.10451625 31.13218039 14.92611265 43 27 C43.76054687 27.76183594 44.52109375 28.52367187 45.3046875 29.30859375 C63.31439634 48.40449125 70.6750254 74.04486466 70.27734375 99.78125 C69.24154522 127.23764098 56.5564944 151.29304678 37.1015625 170.265625 C22.59025649 183.45431036 4.98928675 190.31314474 -14 194 C-14.969375 194.19335938 -15.93875 194.38671875 -16.9375 194.5859375 C-29.74585862 196.31767986 -42.51576008 195.0452581 -55 192 C-56.10730469 191.73316406 -57.21460938 191.46632813 -58.35546875 191.19140625 C-82.45327372 184.58725751 -103.29921326 167.31407445 -115.89794922 145.96191406 C-122.12766094 134.87153671 -125.58506285 123.43822467 -128 111 C-128.19078125 110.05511719 -128.3815625 109.11023438 -128.578125 108.13671875 C-132.04746515 82.34153229 -125.34239967 56.88067948 -109.98461914 35.96411133 C-84.46885408 2.78353147 -40.55474189 -13.52861405 0 0 Z " fill="#113399" transform="translate(308,592)"/>
<path d="M0 0 C0.94552734 0.31541748 0.94552734 0.31541748 1.91015625 0.63720703 C2.54566406 0.84619629 3.18117188 1.05518555 3.8359375 1.27050781 C19.93401567 6.74172328 33.04233664 15.56331968 44.91015625 27.63720703 C45.67070313 28.39904297 46.43125 29.16087891 47.21484375 29.94580078 C65.22455259 49.04169828 72.58518165 74.68207169 72.1875 100.41845703 C71.15170147 127.87484802 58.46665065 151.93025381 39.01171875 170.90283203 C24.50041274 184.09151739 6.899443 190.95035178 -12.08984375 194.63720703 C-13.05921875 194.83056641 -14.02859375 195.02392578 -15.02734375 195.22314453 C-27.83570237 196.9548869 -40.60560383 195.68246513 -53.08984375 192.63720703 C-54.19714844 192.37037109 -55.30445313 192.10353516 -56.4453125 191.82861328 C-80.54311747 185.22446454 -101.38905701 167.95128148 -113.98779297 146.59912109 C-120.21750469 135.50874374 -123.6749066 124.0754317 -126.08984375 111.63720703 C-126.280625 110.69232422 -126.47140625 109.74744141 -126.66796875 108.77392578 C-129.94222547 84.42922069 -124.28169149 59.82417642 -110.15234375 39.69970703 C-93.41678564 18.13595672 -72.71422208 2.47279528 -45.29296875 -1.81982422 C-30.25088802 -4.36964034 -14.89672919 -4.75115378 0 0 Z " fill="#113399" transform="translate(774.08984375,591.36279296875)"/>
<path d="M0 0 C2.39989119 3.05547563 4.35084542 6.22283184 6.265625 9.6015625 C6.90056885 10.71805176 7.5355127 11.83454102 8.18969727 12.98486328 C8.52494415 13.57720764 8.86019104 14.169552 9.20559692 14.77984619 C11.00004614 17.95011146 12.80361481 21.11518953 14.60546875 24.28125 C14.97385361 24.92917511 15.34223846 25.57710022 15.7217865 26.24465942 C19.30976787 32.55289179 22.93187292 38.84122237 26.5625 45.125 C27.17641602 46.18799316 27.79033203 47.25098633 28.42285156 48.34619141 C29.66209635 50.491638 30.90151628 52.63698345 32.14111328 54.78222656 C35.26324607 60.18670649 38.38136526 65.59350107 41.5 71 C42.11810547 72.07121094 42.73621094 73.14242187 43.37304688 74.24609375 C46.51222374 79.68646075 49.64999629 85.12762955 52.78515625 90.5703125 C58.83055159 101.06232094 64.89110219 111.54481676 71 122 C77.74701194 133.54729516 84.43339318 145.12902027 91.10888672 156.71777344 C94.23680148 162.14659942 97.36858448 167.57319281 100.5 173 C101.75001879 175.16665583 103.00001878 177.3333225 104.25 179.5 C104.86875 180.5725 105.4875 181.645 106.125 182.75 C111.75 192.5 111.75 192.5 113.62792969 195.75512695 C114.86810761 197.90473634 116.10834127 200.05431358 117.34863281 202.20385742 C120.2735023 207.27309212 123.19780833 212.34264936 126.12011719 217.4133606 C127.49806938 219.80426597 128.87634172 222.19498672 130.25463867 224.58569336 C131.22540982 226.26983963 132.19571874 227.95425231 133.16601562 229.63867188 C133.75576172 230.66154297 134.34550781 231.68441406 134.953125 232.73828125 C135.72897949 234.08466675 135.72897949 234.08466675 136.52050781 235.45825195 C137.00874023 236.29702881 137.49697266 237.13580566 138 238 C138.5165918 238.89227295 139.03318359 239.7845459 139.56542969 240.70385742 C140.93070339 243.08071528 140.93070339 243.08071528 143 245 C141.5459375 245.20302734 141.5459375 245.20302734 140.0625 245.41015625 C115.24598995 249.24299088 97.32566928 262.58033975 80 280 C79.64301025 279.34298096 79.28602051 278.68596191 78.91821289 278.0090332 C70.22137537 262.03033658 61.35174163 246.15870647 52.04125977 230.52880859 C47.56821865 223.00428081 43.20808114 215.41807346 38.875 207.8125 C38.53213959 207.21079987 38.18927917 206.60909973 37.83602905 205.98916626 C37.15185531 204.78842971 36.46768674 203.5876902 35.78352356 202.38694763 C31.50135639 194.87170886 27.18106674 187.37965562 22.83984375 179.8984375 C19.38188272 173.93884027 15.94172641 167.96898238 12.5 162 C8.17277594 154.49644962 3.84249324 146.99472478 -0.5 139.5 C-5.49582299 130.87769105 -10.47479764 122.24570089 -15.453125 113.61328125 C-19.12978321 107.23891245 -22.81083722 100.86713937 -26.5 94.5 C-30.84249337 87.00527499 -35.17266859 79.50348865 -39.5 72 C-44.07944299 64.06024855 -48.66009546 56.12120949 -53.25 48.1875 C-53.69150391 47.42373047 -54.13300781 46.65996094 -54.58789062 45.87304688 C-56.69628014 42.23067948 -58.8210874 38.60086531 -61 35 C-59.9584375 34.79246094 -58.916875 34.58492188 -57.84375 34.37109375 C-34.62567848 29.48767864 -15.11090101 18.68979862 0 0 Z " fill="#595959" transform="translate(589,345)"/>
<path d="M0 0 C0.639375 0.639375 1.27875 1.27875 1.9375 1.9375 C2.40285156 2.39640625 2.86820313 2.8553125 3.34765625 3.328125 C4.52730832 4.52172094 5.67815639 5.74406792 6.80859375 6.984375 C19.75463922 20.78696412 36.97618354 29.58531571 55.171875 34.17578125 C58 35 58 35 61 37 C54.73046875 47.8671875 48.4609375 58.734375 42.19140625 69.6015625 C41.58103516 70.65956055 40.97066406 71.71755859 40.34179688 72.80761719 C39.10489272 74.95154067 37.86791246 77.09542026 36.63085938 79.23925781 C33.49041883 84.68192559 30.35131366 90.12535545 27.21484375 95.5703125 C20.59777108 107.0544882 13.95366023 118.52196894 7.26708984 129.96582031 C1.10511341 140.51883187 -4.99617839 151.1066104 -11.09570312 161.69580078 C-13.01506662 165.02614252 -14.93682353 168.35509148 -16.859375 171.68359375 C-22.61613116 181.65143242 -28.36376551 191.62385917 -34.0625 201.625 C-38.91199855 210.13428176 -43.83842546 218.5970849 -48.78491211 227.05029297 C-52.60882158 233.59245398 -56.38229307 240.16110936 -60.125 246.75 C-73.41547696 270.12321544 -73.41547696 270.12321544 -80 280 C-80.58394531 279.29037109 -80.58394531 279.29037109 -81.1796875 278.56640625 C-97.15138694 259.6874159 -116.67952066 250.77405461 -140 244 C-136.05959354 236.73662223 -132.06703696 229.50573017 -128 222.3125 C-127.16251221 220.83100464 -127.16251221 220.83100464 -126.30810547 219.31958008 C-121.72690555 211.23837404 -117.06286696 203.20742938 -112.37084961 195.19018555 C-106.162804 184.58188952 -100.02620279 173.93283053 -93.89111328 163.28222656 C-90.76319852 157.85340058 -87.63141552 152.42680719 -84.5 147 C-83.24998121 144.83334417 -81.99998122 142.6666775 -80.75 140.5 C-68.25 118.83333333 -55.75 97.16666667 -43.25 75.5 C-42.63116943 74.42733887 -42.01233887 73.35467773 -41.37475586 72.24951172 C-40.12564482 70.08442929 -38.87645871 67.91939018 -37.62719727 65.75439453 C-34.48797691 60.31384294 -31.35009437 54.87252784 -28.21484375 49.4296875 C-26.95582009 47.24473927 -25.69670599 45.05984316 -24.4375 42.875 C-23.51855957 41.28026855 -23.51855957 41.28026855 -22.58105469 39.65332031 C-19.42002562 34.17364723 -16.24584406 28.70209497 -13.05078125 23.2421875 C-12.09377319 21.60660889 -12.09377319 21.60660889 -11.11743164 19.93798828 C-9.90618067 17.87019965 -8.69322945 15.80340568 -7.47827148 13.73779297 C-4.83179658 9.22167497 -2.25220539 4.7264592 0 0 Z " fill="#595959" transform="translate(435,345)"/>
</svg>
